<svg width="22" height="22" viewBox="0 0 22 22" fill="none" xmlns="http://www.w3.org/2000/svg">
<g id="Icon/Edit">
<path id="Vector" d="M4.58331 16.5001H8.46998C8.59062 16.5008 8.71021 16.4777 8.82189 16.4321C8.93358 16.3864 9.03516 16.3192 9.12081 16.2343L15.4641 9.88177L18.0675 7.33344C18.1534 7.24822 18.2216 7.14684 18.2681 7.03514C18.3147 6.92343 18.3386 6.80362 18.3386 6.68261C18.3386 6.5616 18.3147 6.44178 18.2681 6.33008C18.2216 6.21837 18.1534 6.11699 18.0675 6.03177L14.1808 2.09927C14.0956 2.01336 13.9942 1.94516 13.8825 1.89862C13.7708 1.85209 13.651 1.82812 13.53 1.82812C13.409 1.82813 13.2892 1.85209 13.1775 1.89862C13.0657 1.94516 12.9644 2.01336 12.8791 2.09927L10.2941 4.69344L3.93248 11.0459C3.84752 11.1316 3.78031 11.2332 3.73469 11.3449C3.68907 11.4565 3.66595 11.5761 3.66665 11.6968V15.5834C3.66665 15.8266 3.76322 16.0597 3.93513 16.2316C4.10704 16.4035 4.3402 16.5001 4.58331 16.5001ZM13.53 4.04261L16.1241 6.63677L14.8225 7.93844L12.2283 5.34427L13.53 4.04261ZM5.49998 12.0726L10.9358 6.63677L13.53 9.23094L8.09415 14.6668H5.49998V12.0726ZM19.25 18.3334H2.74998C2.50686 18.3334 2.27371 18.43 2.1018 18.6019C1.92989 18.7738 1.83331 19.007 1.83331 19.2501C1.83331 19.4932 1.92989 19.7264 2.1018 19.8983C2.27371 20.0702 2.50686 20.1668 2.74998 20.1668H19.25C19.4931 20.1668 19.7263 20.0702 19.8982 19.8983C20.0701 19.7264 20.1666 19.4932 20.1666 19.2501C20.1666 19.007 20.0701 18.7738 19.8982 18.6019C19.7263 18.43 19.4931 18.3334 19.25 18.3334Z" fill="#4A4F5C"/>
</g>
</svg>
