<svg width="22" height="22" viewBox="0 0 22 22" fill="none" xmlns="http://www.w3.org/2000/svg">
<g id="Icon/Trash">
<path id="Vector" d="M9.16667 16.4999C9.40978 16.4999 9.64294 16.4033 9.81485 16.2314C9.98676 16.0595 10.0833 15.8264 10.0833 15.5833V10.0833C10.0833 9.84014 9.98676 9.60698 9.81485 9.43507C9.64294 9.26316 9.40978 9.16658 9.16667 9.16658C8.92355 9.16658 8.69039 9.26316 8.51849 9.43507C8.34658 9.60698 8.25 9.84014 8.25 10.0833V15.5833C8.25 15.8264 8.34658 16.0595 8.51849 16.2314C8.69039 16.4033 8.92355 16.4999 9.16667 16.4999ZM18.3333 5.49992H14.6667V4.58325C14.6667 3.85391 14.3769 3.15443 13.8612 2.63871C13.3455 2.12298 12.646 1.83325 11.9167 1.83325H10.0833C9.35399 1.83325 8.65451 2.12298 8.13879 2.63871C7.62306 3.15443 7.33333 3.85391 7.33333 4.58325V5.49992H3.66667C3.42355 5.49992 3.19039 5.5965 3.01849 5.7684C2.84658 5.94031 2.75 6.17347 2.75 6.41658C2.75 6.6597 2.84658 6.89286 3.01849 7.06477C3.19039 7.23667 3.42355 7.33325 3.66667 7.33325H4.58333V17.4166C4.58333 18.1459 4.87306 18.8454 5.38879 19.3611C5.90451 19.8769 6.60399 20.1666 7.33333 20.1666H14.6667C15.396 20.1666 16.0955 19.8769 16.6112 19.3611C17.1269 18.8454 17.4167 18.1459 17.4167 17.4166V7.33325H18.3333C18.5764 7.33325 18.8096 7.23667 18.9815 7.06477C19.1534 6.89286 19.25 6.6597 19.25 6.41658C19.25 6.17347 19.1534 5.94031 18.9815 5.7684C18.8096 5.5965 18.5764 5.49992 18.3333 5.49992ZM9.16667 4.58325C9.16667 4.34014 9.26324 4.10698 9.43515 3.93507C9.60706 3.76316 9.84022 3.66659 10.0833 3.66659H11.9167C12.1598 3.66659 12.3929 3.76316 12.5648 3.93507C12.7368 4.10698 12.8333 4.34014 12.8333 4.58325V5.49992H9.16667V4.58325ZM15.5833 17.4166C15.5833 17.6597 15.4868 17.8929 15.3148 18.0648C15.1429 18.2367 14.9098 18.3333 14.6667 18.3333H7.33333C7.09022 18.3333 6.85706 18.2367 6.68515 18.0648C6.51324 17.8929 6.41667 17.6597 6.41667 17.4166V7.33325H15.5833V17.4166ZM12.8333 16.4999C13.0764 16.4999 13.3096 16.4033 13.4815 16.2314C13.6534 16.0595 13.75 15.8264 13.75 15.5833V10.0833C13.75 9.84014 13.6534 9.60698 13.4815 9.43507C13.3096 9.26316 13.0764 9.16658 12.8333 9.16658C12.5902 9.16658 12.3571 9.26316 12.1852 9.43507C12.0132 9.60698 11.9167 9.84014 11.9167 10.0833V15.5833C11.9167 15.8264 12.0132 16.0595 12.1852 16.2314C12.3571 16.4033 12.5902 16.4999 12.8333 16.4999Z" fill="#4A4F5C"/>
</g>
</svg>
